<?xml version="1.0" encoding="UTF-8"?><svg id="Camada_1" xmlns="http://www.w3.org/2000/svg" viewBox="0 0 150 150"><defs><style>.cls-1{stroke-width:4px;}.cls-1,.cls-2{fill:#3ec14d;stroke:#3ec14d;stroke-miterlimit:10;}.cls-2{stroke-width:2px;}.cls-3{fill:#b4efb8;}</style></defs><rect class="cls-3" y="0" width="150.04" height="150"/><path class="cls-1" d="M112.22,113.15c-4.87,1.47-9.86,2.67-14.95,3.59-4.8.87-9.69,1.49-14.65,1.84-.04,6-4.91,10.85-10.92,10.85s-10.92-4.89-10.92-10.92c0-.04,0-.08,0-.12-5.04-.44-10-1.16-14.86-2.14-4.96-1-9.83-2.27-14.57-3.79-1.84-.59-2.7-2.69-1.82-4.4l10.72-20.58v-20.8c0-13.67,8.7-25.3,20.86-29.67v-5.67c0-5.76,4.53-10.59,10.29-10.78,6.05-.2,11.02,4.64,11.02,10.65v5.8c3.27,1.17,6.29,2.87,8.96,5-1.99,2.94-3.15,6.48-3.15,10.29,0,9.02,6.49,16.52,15.05,18.1v17.61l10.79,20.72c.9,1.73,0,3.85-1.87,4.41Z"/><circle class="cls-2" cx="107.4" cy="52.01" r="13.41"/></svg>