<?xml version="1.0" encoding="UTF-8"?><svg xmlns="http://www.w3.org/2000/svg" viewBox="0 0 150 150"><defs><style>.cls-1,.cls-2{fill:#bf4040;}.cls-3{fill:#edb4b4;}.cls-2{stroke:#bf4040;}.cls-2,.cls-4,.cls-5{stroke-miterlimit:10;}.cls-4{fill:none;stroke-linecap:round;stroke-width:4px;}.cls-4,.cls-5{stroke:#ffe9e9;}.cls-5{fill:#ffe9e9;}</style></defs><g id="Camada_4"><rect class="cls-3" width="150" height="150"/></g><g id="Camada_3"><path class="cls-1" d="M112.75,133.38v2.99c0,.83-.67,1.5-1.5,1.5H30.75c-.83,0-1.5-.67-1.5-1.5V21.88c0-.83.67-1.5,1.5-1.5h2.99c.83,0,1.5.67,1.5,1.5v110h76c.83,0,1.5.67,1.5,1.5Z"/><path class="cls-2" d="M120.25,41.98v85.82c0,1.14-.93,2.07-2.07,2.07H37.25V15.2c0-1.14.93-2.07,2.07-2.07h52.07c.55,0,1.08.22,1.47.61l26.79,26.79c.39.39.61.92.61,1.47Z"/><path class="cls-5" d="M92.25,12.12l28.5,28.5h-26.43c-1.14,0-2.07-.93-2.07-2.07V12.12Z"/><line class="cls-4" x1="43.91" y1="33.37" x2="82.75" y2="33.37"/><line class="cls-4" x1="43.91" y1="47.57" x2="82.75" y2="47.57"/><line class="cls-4" x1="43.91" y1="75.97" x2="111.75" y2="75.97"/><line class="cls-4" x1="43.91" y1="61.77" x2="111.75" y2="61.77"/><line class="cls-4" x1="43.91" y1="90.17" x2="111.75" y2="90.17"/><line class="cls-4" x1="43.91" y1="104.38" x2="76.75" y2="104.38"/><rect class="cls-4" x="85.75" y="97.62" width="27" height="24" rx="3.81" ry="3.81"/></g></svg>