<?xml version="1.0" encoding="UTF-8"?><svg id="Camada_1" xmlns="http://www.w3.org/2000/svg" viewBox="0 0 722.59 799.67"><defs><style>.cls-1{fill:none;stroke:#000;stroke-miterlimit:10;stroke-width:15px;}</style></defs><path d="M277.53,280.19s121.24,213.5,47.24,355.5l32.29,67.47,37.34-56.29s-74.63-84.19,51.37-244.19c0,0-75.34,71.53-107.74-21.98-2.8-8.08-5.84-16.08-9.33-23.88-9.94-22.24-29.3-60.46-51.17-76.64Z"/><path d="M112.26,42.19h0c69.54,0,126,56.46,126,126h0c-69.54,0-126-56.46-126-126h0Z" transform="translate(4.24 -6.76) rotate(2.24)"/><path d="M218.75,28.75h0c40.92,0,74.14,33.22,74.14,74.14h0c-40.92,0-74.14-33.22-74.14-74.14h0Z" transform="translate(67.18 -119.09) rotate(30)"/><path d="M342.4,21.28h0c57.11,0,103.48,46.37,103.48,103.48h0c-57.11,0-103.48-46.37-103.48-103.48h0Z" transform="translate(188.57 -271.1) rotate(48.65)"/><path d="M440.3,42.87h0c37.91,0,68.69,30.78,68.69,68.69h0c-37.91,0-68.69-30.78-68.69-68.69h0Z" transform="translate(430.68 -401.66) rotate(75.51)"/><path d="M542.78,80.82h0c31.17,0,56.47,25.3,56.47,56.47h0c-31.17,0-56.47-25.3-56.47-56.47h0Z" transform="translate(954.9 -327.51) rotate(120.51)"/><path d="M431.76,172.23h0c34.49,0,62.49,28,62.49,62.49h0c-34.49,0-62.49-28-62.49-62.49h0Z" transform="translate(793.37 586.4) rotate(-154.51)"/><path d="M407.9,386.03h0c13.69,0,24.81,11.12,24.81,24.81h0c-13.69,0-24.81-11.12-24.81-24.81h0Z" transform="translate(-64.65 715.03) rotate(-76.61)"/><path d="M435.27,323.97h0c31.04,0,56.24,25.2,56.24,56.24h0c-31.04,0-56.24-25.2-56.24-56.24h0Z" transform="translate(13.54 721.31) rotate(-76.61)"/><path d="M428.74,445.72h0c23.51,0,42.59,19.09,42.59,42.59h0c-23.51,0-42.59-19.09-42.59-42.59h0Z" transform="translate(214.45 -137.25) rotate(22.64)"/><path d="M466.69,407.45h0c34.8,0,63.06,28.26,63.06,63.06h0c-34.8,0-63.06-28.26-63.06-63.06h0Z" transform="translate(-122.91 204.19) rotate(-20.68)"/><path d="M534.52,342.55h0c50.91,0,92.24,41.33,92.24,92.24h0c-50.91,0-92.24-41.33-92.24-92.24h0Z" transform="translate(-112.02 480.49) rotate(-41.35)"/><path d="M638.25,282.96h0c32.26,0,58.46,26.19,58.46,58.46h0c-32.26,0-58.46-26.19-58.46-58.46h0Z" transform="translate(-66.67 375.56) rotate(-30)"/><path d="M565.25,318.62h0c17.19,0,31.14,13.95,31.14,31.14h0c-17.19,0-31.14-13.95-31.14-31.14h0Z" transform="translate(-89.28 335.18) rotate(-30)"/><path d="M469.25,376.62h0c17.19,0,31.14,13.95,31.14,31.14h0c-17.19,0-31.14-13.95-31.14-31.14h0Z" transform="translate(-131.14 294.95) rotate(-30)"/><path d="M241.71,408.58h0c37.9,0,68.67,30.77,68.67,68.67h0c-37.9,0-68.67-30.77-68.67-68.67h0Z" transform="translate(-113.68 790.05) rotate(-99.76)"/><path d="M225.71,289.58h0c37.9,0,68.67,30.77,68.67,68.67h0c-37.9,0-68.67-30.77-68.67-68.67h0Z" transform="translate(437.99 699.27) rotate(-166.61)"/><path d="M264.7,139.01h0c29.41,0,53.28,23.87,53.28,53.28h0c-29.41,0-53.28-23.87-53.28-53.28h0Z" transform="translate(582.68 331.3) rotate(180)"/><path d="M313.7,108.01h0c29.41,0,53.28,23.87,53.28,53.28h0c-29.41,0-53.28-23.87-53.28-53.28h0Z" transform="translate(621.81 368.62) rotate(-161.85)"/><path d="M385.29,167.96h0c19.16,0,34.72,15.56,34.72,34.72h0c-19.16,0-34.72-15.56-34.72-34.72h0Z" transform="translate(838.86 264.02) rotate(165.51)"/><path d="M322.34,198.33h0c37.3,0,67.58,30.28,67.58,67.58h0c-37.3,0-67.58-30.28-67.58-67.58h0Z" transform="translate(417.15 652.82) rotate(-131.35)"/><path d="M342.23,292.98h0c26.47,0,47.97,21.49,47.97,47.97h0c-26.47,0-47.97-21.49-47.97-47.97h0Z" transform="translate(320.7 799.15) rotate(-125.49)"/><path d="M312,289.39h0c17.53,0,31.77,14.23,31.77,31.77h0c-17.53,0-31.77-14.23-31.77-31.77h0Z" transform="translate(601.68 659.86) rotate(-170.63)"/><path d="M362.45,340.68h0c31.22,0,56.57,25.35,56.57,56.57h0c-31.22,0-56.57-25.35-56.57-56.57h0Z" transform="translate(318.46 901.5) rotate(-125.63)"/><path d="M174.26,283.39h0c26.77,0,48.51,21.73,48.51,48.51h0c-26.77,0-48.51-21.73-48.51-48.51h0Z" transform="translate(121.36 665.55) rotate(-135)"/><path d="M214.74,226.12h0c20.73,0,37.55,16.83,37.55,37.55h0c-20.73,0-37.55-16.83-37.55-37.55h0Z" transform="translate(403.96 537.22) rotate(-166.61)"/><path d="M207.26,369.75h0c24.8,0,44.94,20.14,44.94,44.94h0c-24.8,0-44.94-20.14-44.94-44.94h0Z" transform="translate(-117.87 685.1) rotate(-99.76)"/><path d="M370.97,230.67h4.95c51.78,0,93.83,42.04,93.83,93.83h-4.95c-51.78,0-93.83-42.04-93.83-93.83h0Z" transform="translate(295.21 -210.37) rotate(42.18)"/><path d="M246.02,187.64h0c44.2,0,80.08,35.88,80.08,80.08h0c-44.2,0-80.08-35.88-80.08-80.08h0Z" transform="translate(19.95 -23.03) rotate(4.78)"/><path d="M118.24,349.81h0c47.68,0,86.38,38.71,86.38,86.38h0c-47.68,0-86.38-38.71-86.38-86.38h0Z" transform="translate(554.43 231.58) rotate(90)"/><path d="M113.22,162.1h9.9c43.71,0,79.2,35.49,79.2,79.2h-9.9c-43.71,0-79.2-35.49-79.2-79.2h0Z" transform="translate(411.94 232.76) rotate(135)"/><path d="M69.18,227.92h0c61.75,0,111.88,50.13,111.88,111.88h0c-61.75,0-111.88-50.13-111.88-111.88h0Z" transform="translate(432.01 238.6) rotate(105.4)"/><path d="M493.96,201.17h0c70.35,0,127.47,57.12,127.47,127.47h0c-70.35,0-127.47-57.12-127.47-127.47h0Z" transform="translate(909.87 -242.22) rotate(99.37)"/><path d="M525.73,120.7h0c49.71,0,90.07,40.36,90.07,90.07h0c-49.71,0-90.07-40.36-90.07-90.07h0Z" transform="translate(966 -278.15) rotate(115.49)"/><path d="M631.57,213.82h0c33.69,0,61.05,27.36,61.05,61.05h0c-33.69,0-61.05-27.36-61.05-61.05h0Z" transform="translate(798.1 -448.17) rotate(80.85)"/><path class="cls-1" d="M705.93,574.06c-41.73,13.95-83.24,14.86-129.54,4.92-6.78-1.12-13.61-2.06-20.46-2.58-89.9-7.34-178.09,53.4-194.32,143.29h-.67c-16.23-89.9-104.43-150.64-194.32-143.29-6.85.52-13.68,1.46-20.46,2.58-46.3,9.94-87.81,9.03-129.54-4.92"/></svg>