<?xml version="1.0" encoding="UTF-8"?><svg xmlns="http://www.w3.org/2000/svg" viewBox="0 0 150 150"><defs><style>.cls-1{fill:#b6b5ea;}.cls-2,.cls-3{fill:#4340bc;}.cls-3{stroke:#4340bc;stroke-miterlimit:10;}.cls-4{fill:#ebebff;}</style></defs><g id="Camada_3"><rect class="cls-1" width="150" height="150"/></g><g id="Camada_1"><circle class="cls-3" cx="75" cy="45.5" r="32"/></g><g id="Camada_2"><path class="cls-3" d="M61.78,81.5h26.44c17.82,0,32.28,14.47,32.28,32.28v49.72H29.5v-49.72c0-17.82,14.47-32.28,32.28-32.28Z"/></g><g id="Camada_5"><path class="cls-4" d="M114.85,79.71l2.8,1.84c.31.2.68.29,1.05.24l3.32-.44c.61-.08,1.21.21,1.53.73l1.72,2.87c.19.32.49.56.84.67l3.18,1.04c.58.19,1,.71,1.06,1.32l.31,3.33c.03.37.2.71.47.97l2.41,2.32c.44.43.59,1.08.38,1.65l-1.17,3.13c-.13.35-.13.73,0,1.08l1.17,3.13c.22.58.07,1.23-.38,1.65l-2.41,2.32c-.27.26-.43.6-.47.97l-.31,3.33c-.06.61-.47,1.13-1.06,1.32l-3.18,1.04c-.35.12-.65.35-.84.67l-1.72,2.87c-.32.53-.92.82-1.53.73l-3.32-.44c-.37-.05-.74.04-1.05.24l-2.8,1.84c-.51.34-1.18.34-1.69,0l-2.8-1.84c-.31-.2-.68-.29-1.05-.24l-3.32.44c-.61.08-1.21-.21-1.53-.73l-1.72-2.87c-.19-.32-.49-.56-.84-.67l-3.18-1.04c-.58-.19-1-.71-1.06-1.32l-.31-3.33c-.03-.37-.2-.71-.47-.97l-2.41-2.32c-.44-.43-.59-1.08-.38-1.65l1.17-3.13c.13-.35.13-.73,0-1.08l-1.17-3.13c-.22-.58-.07-1.23.38-1.65l2.41-2.32c.27-.26.43-.6.47-.97l.31-3.33c.06-.61.47-1.13,1.06-1.32l3.18-1.04c.35-.12.65-.35.84-.67l1.72-2.87c.32-.53.92-.82,1.53-.73l3.32.44c.37.05.74-.04,1.05-.24l2.8-1.84c.51-.34,1.18-.34,1.69,0Z"/><path class="cls-2" d="M114.57,89.88l2.31,7.12h7.49c.58,0,.83.75.35,1.09l-6.06,4.4,2.31,7.12c.18.56-.46,1.02-.93.67l-6.06-4.4-6.06,4.4c-.47.34-1.11-.12-.93-.67l2.31-7.12-6.06-4.4c-.47-.34-.23-1.09.35-1.09h7.49s2.31-7.12,2.31-7.12c.18-.56.97-.56,1.15,0Z"/></g></svg>